<?xml version="1.0" standalone="no"?>
<!DOCTYPE svg PUBLIC "-//W3C//DTD SVG 20010904//EN"
 "http://www.w3.org/TR/2001/REC-SVG-20010904/DTD/svg10.dtd">
<svg version="1.0" xmlns="http://www.w3.org/2000/svg"
 width="512.000000pt" height="512.000000pt" viewBox="0 0 512.000000 512.000000"
 preserveAspectRatio="xMidYMid meet">
<metadata>
Created by potrace 1.14, written by Peter Selinger 2001-2017
</metadata>
<g transform="translate(0.000000,512.000000) scale(0.100000,-0.100000)"
fill="#000000" stroke="none">
<path d="M735 4297 c-280 -31 -543 -210 -658 -447 -15 -30 -36 -91 -47 -134
-19 -77 -20 -109 -20 -1146 0 -713 4 -1086 11 -1126 16 -90 48 -170 100 -250
116 -177 292 -297 525 -356 l89 -23 1825 0 1825 0 87 22 c255 65 449 206 555
403 26 47 50 108 59 145 2 6 7 26 13 45 8 24 10 382 8 1145 l-2 1110 -27 78
c-62 183 -213 353 -393 444 -60 31 -177 71 -226 78 -24 4 -48 10 -54 13 -14 9
-3586 9 -3670 -1z"/>
</g>
</svg>
