<?xml version="1.0" encoding="UTF-8" standalone="no"?>
<svg
   xmlns:dc="http://purl.org/dc/elements/1.1/"
   xmlns:cc="http://creativecommons.org/ns#"
   xmlns:rdf="http://www.w3.org/1999/02/22-rdf-syntax-ns#"
   xmlns:svg="http://www.w3.org/2000/svg"
   xmlns="http://www.w3.org/2000/svg"
   xmlns:sodipodi="http://sodipodi.sourceforge.net/DTD/sodipodi-0.dtd"
   xmlns:inkscape="http://www.inkscape.org/namespaces/inkscape"
   version="1.1"
   preserveAspectRatio="xMidYMid meet"
   viewBox="838 290 126 131"
   id="svg42"
   sodipodi:docname="logo-white.svg"
   inkscape:version="0.92.5 (2060ec1f9f, 2020-04-08)">
  <metadata
     id="metadata48">
    <rdf:RDF>
      <cc:Work
         rdf:about="">
        <dc:format>image/svg+xml</dc:format>
        <dc:type
           rdf:resource="http://purl.org/dc/dcmitype/StillImage" />
        <dc:title></dc:title>
      </cc:Work>
    </rdf:RDF>
  </metadata>
  <defs
     id="defs46" />
  <sodipodi:namedview
     pagecolor="#ffffff"
     bordercolor="#666666"
     borderopacity="1"
     objecttolerance="10"
     gridtolerance="10"
     guidetolerance="10"
     inkscape:pageopacity="0"
     inkscape:pageshadow="2"
     inkscape:window-width="1872"
     inkscape:window-height="1016"
     id="namedview44"
     showgrid="false"
     inkscape:zoom="6.1221374"
     inkscape:cx="63"
     inkscape:cy="65.5"
     inkscape:window-x="0"
     inkscape:window-y="27"
     inkscape:window-maximized="1"
     inkscape:current-layer="svg42" />
  <rect
     style="fill:#000000;stroke-width:5.58886766"
     id="rect50"
     width="131.65337"
     height="130.01996"
     x="839.63336"
     y="291.96011" />
  <g
     id="g186"
     transform="translate(19.764339,2.4501247)">
    <g
       inkscape:export-ydpi="133.63"
       inkscape:export-xdpi="133.63"
       inkscape:export-filename="/home/rob/apple-touch-icon.png"
       class="logo__item"
       id="logo__item--business"
       data-item="Business"
       data-item-type="text"
       transform="translate(-18.163249,-2.4096618)">
      <g
         id="g12"
         transform="translate(842.79591,412.89575)"
         class="logo__item__inner">
        <text
           id="text10"
           data-ttf-url="/builder_assets/fontsttf/font-montserrat-bold-normal.ttf"
           data-font-style="normal"
           data-font-weight="bold"
           data-font-family="Montserrat"
           font-style="normal"
           font-weight="bold"
           letter-spacing="0"
           font-size="32px"
           alignment-baseline="auto"
           dominant-baseline="auto"
           dy="0"
           data-part-id="logo__item--business"
           style="font-style:normal;font-weight:bold;font-size:32px;font-family:Montserrat;letter-spacing:0;dominant-baseline:auto;fill:#357d57">Bounty</text>
      </g>
    </g>
    <g
       inkscape:export-ydpi="133.63"
       inkscape:export-xdpi="133.63"
       inkscape:export-filename="/home/rob/apple-touch-icon.png"
       class="logo__item"
       id="logo__item--logo_0"
       data-logo-item=""
       data-item="Image"
       data-item-type="image"
       transform="translate(-18.163249,-2.4096618)">
      <g
         id="g39"
         transform="matrix(0.06707658,0,0,0.06707658,834.15819,265.5)"
         class="logo__item__inner">
        <g
           id="g37">
          <path
             id="path15"
             data-part-id="logo__item--logo_0__0"
             d="m 548,1007.6 c 103.6,0 187.6,-84 187.6,-187.6 0,-103.6 -84,-187.6 -187.6,-187.6 -103.6,0 -187.6,84 -187.6,187.6 0,103.7 84,187.6 187.6,187.6 z m -5,-345.1 c 38.7,0 70,14.5 70,32.5 0,18 -31.4,32.5 -70,32.5 -38.7,0 -70,-14.5 -70,-32.5 -0.1,-18 31.3,-32.5 70,-32.5 z"
             inkscape:connector-curvature="0"
             style="fill:#357d57" />
          <path
             id="path17"
             data-part-id="logo__item--logo_0__1"
             d="m 834.6,1088 c -22.3,-10 -55.7,-20 -93,-20 h -153 l -44.3,75 -30.7,-75 H 376.9 c -67.1,0 -129.9,39.2 -129.9,97.2 V 1512 h 103 v -207 h 42 v 207 h 248 v -264.2 c 0,-82.7 80.2,-159.8 172.1,-159.8 z"
             inkscape:connector-curvature="0"
             style="fill:#357d57" />
          <path
             id="path19"
             data-part-id="logo__item--logo_0__2"
             d="m 1410.9,1007.6 c 103.6,0 187.6,-84 187.6,-187.6 0,-103.6 -84,-187.6 -187.6,-187.6 -103.6,0 -187.6,84 -187.6,187.6 0,103.7 84,187.6 187.6,187.6 z m -7.5,-350.1 c 38.7,0 70,14.5 70,32.5 0,18 -31.4,32.5 -70,32.5 -38.7,0 -70,-14.5 -70,-32.5 0,-18 31.3,-32.5 70,-32.5 z"
             inkscape:connector-curvature="0"
             style="fill:#357d57" />
          <path
             id="path21"
             data-part-id="logo__item--logo_0__3"
             d="m 1332,1512 h 249 v -207 h 41 v 207 h 93 v -346.8 c 0,-58 -43.4,-97.2 -110.5,-97.2 H 1468 l -42.1,71.3 -29.2,-71.3 h -156.9 c -37.4,0 -70.7,10 -93,20 h 30 c 43.3,0 78.6,19.6 109.7,46.6 33,28.5 45.5,71.9 45.5,113.2 z"
             inkscape:connector-curvature="0"
             style="fill:#357d57" />
          <path
             id="path23"
             data-part-id="logo__item--logo_0__4"
             d="M 1788.6,416 H 207.7 c -58,0 -105.7,38.4 -105.7,96.4 v 1000.5 c 0,58 47.7,103.1 105.7,103.1 H 640 v -73 H 267.1 c -52.9,0 -92.1,-36.7 -92.1,-88 V 570.3 C 175,519 214.2,489 267.1,489 h 1442 c 52.9,0 98.8,30 98.8,81.3 V 1455 c 0,51.3 -45.9,88 -98.8,88 H 1332 v 73 h 456.6 c 58,0 102.4,-45.1 102.4,-103.1 V 512.4 c 0,-58 -44.4,-96.4 -102.4,-96.4 z M 1746,437 H 216 v -21 h 1530 z"
             inkscape:connector-curvature="0"
             style="fill:#357d57" />
          <path
             id="path25"
             data-part-id="logo__item--logo_0__5"
             d="m 983.2,1090.2 c 103.6,0 187.6,-84 187.6,-187.6 0,-103.6 -84,-187.6 -187.6,-187.6 -103.6,0 -187.6,84 -187.6,187.6 0,103.6 84,187.6 187.6,187.6 z m 5,-342.7 c 38.7,0 70,14.6 70,32.5 0,18 -31.4,32.5 -70,32.5 -38.7,0 -70,-14.6 -70,-32.5 -0.1,-17.9 31.3,-32.5 70,-32.5 z"
             inkscape:connector-curvature="0"
             style="fill:#55924e" />
          <path
             id="path27"
             data-part-id="logo__item--logo_0__6"
             d="m 1176.8,1150 h -149.3 l -26.6,41.4 -17.7,28.2 -12.3,-27.3 -18.4,-42.3 H 812.1 c -67.2,0 -120.1,39.7 -120.1,97.8 V 1605 h 93 v -217 h 41 v 217 h 331 v -217 h 41 v 217 h 93 v -357.2 c 0,-58.1 -47.1,-97.8 -114.2,-97.8 z"
             inkscape:connector-curvature="0"
             style="fill:#55924e" />
          <path
             id="path29"
             data-part-id="logo__item--logo_0__7"
             d="m 1403.4,722.5 c 38.7,0 70,-14.5 70,-32.5 0,-18 -31.4,-32.5 -70,-32.5 -38.7,0 -70,14.5 -70,32.5 0,18 31.3,32.5 70,32.5 z"
             inkscape:connector-curvature="0"
             style="fill:#70a183" />
          <path
             id="path31"
             data-part-id="logo__item--logo_0__8"
             d="m 543,727.5 c 38.7,0 70,-14.5 70,-32.5 0,-18 -31.4,-32.5 -70,-32.5 -38.7,0 -70,14.5 -70,32.5 -0.1,18 31.3,32.5 70,32.5 z"
             inkscape:connector-curvature="0"
             style="fill:#70a183" />
          <path
             id="path33"
             data-part-id="logo__item--logo_0__9"
             d="m 988.2,812.6 c 38.7,0 70,-14.6 70,-32.5 0,-18 -31.4,-32.5 -70,-32.5 -38.7,0 -70,14.6 -70,32.5 -0.1,17.9 31.3,32.5 70,32.5 z"
             inkscape:connector-curvature="0"
             style="fill:#81ae79" />
          <rect
             id="rect35"
             data-part-id="logo__item--logo_0__10"
             height="21"
             width="1530"
             y="416"
             x="216"
             style="fill:#70a183" />
        </g>
      </g>
    </g>
  </g>
</svg>
